<mxfile host="app.diagrams.net" modified="2024-06-17T12:24:19.590Z" agent="Mozilla/5.0 (Windows NT 10.0; Win64; x64) AppleWebKit/537.36 (KHTML, like Gecko) Chrome/125.0.0.0 Safari/537.36" etag="MJbNxHu-rIz_-uRlqC5J" version="24.5.4" type="device">
  <diagram name="Page-1" id="CRayuH1D4yztOGFUTux5">
    <mxGraphModel dx="1900" dy="589" grid="1" gridSize="10" guides="1" tooltips="1" connect="1" arrows="1" fold="1" page="1" pageScale="1" pageWidth="850" pageHeight="1100" math="0" shadow="0">
      <root>
        <mxCell id="0" />
        <mxCell id="1" parent="0" />
        <mxCell id="VTIJ_GDe0LgsKLtdGAgx-5" style="edgeStyle=orthogonalEdgeStyle;rounded=0;orthogonalLoop=1;jettySize=auto;html=1;exitX=0.5;exitY=1;exitDx=0;exitDy=0;entryX=0.5;entryY=0;entryDx=0;entryDy=0;" parent="1" source="VTIJ_GDe0LgsKLtdGAgx-1" target="VTIJ_GDe0LgsKLtdGAgx-3" edge="1">
          <mxGeometry relative="1" as="geometry" />
        </mxCell>
        <mxCell id="VTIJ_GDe0LgsKLtdGAgx-1" value="" style="ellipse;whiteSpace=wrap;html=1;aspect=fixed;fillColor=#000000;" parent="1" vertex="1">
          <mxGeometry x="360" y="50" width="80" height="80" as="geometry" />
        </mxCell>
        <mxCell id="VTIJ_GDe0LgsKLtdGAgx-9" style="edgeStyle=orthogonalEdgeStyle;rounded=0;orthogonalLoop=1;jettySize=auto;html=1;exitX=0.5;exitY=1;exitDx=0;exitDy=0;entryX=0.5;entryY=0;entryDx=0;entryDy=0;" parent="1" source="VTIJ_GDe0LgsKLtdGAgx-3" target="VTIJ_GDe0LgsKLtdGAgx-8" edge="1">
          <mxGeometry relative="1" as="geometry" />
        </mxCell>
        <mxCell id="VTIJ_GDe0LgsKLtdGAgx-3" value="PRIJAVA U SUSTAV" style="rounded=1;whiteSpace=wrap;html=1;" parent="1" vertex="1">
          <mxGeometry x="340" y="170" width="120" height="60" as="geometry" />
        </mxCell>
        <mxCell id="VTIJ_GDe0LgsKLtdGAgx-76" style="edgeStyle=orthogonalEdgeStyle;rounded=0;orthogonalLoop=1;jettySize=auto;html=1;exitX=0.5;exitY=1;exitDx=0;exitDy=0;entryX=0.5;entryY=0;entryDx=0;entryDy=0;" parent="1" source="VTIJ_GDe0LgsKLtdGAgx-4" target="VTIJ_GDe0LgsKLtdGAgx-75" edge="1">
          <mxGeometry relative="1" as="geometry" />
        </mxCell>
        <mxCell id="VTIJ_GDe0LgsKLtdGAgx-4" value="UPRAVLJANJE RAČUNIMA KORISNIKA" style="rounded=1;whiteSpace=wrap;html=1;" parent="1" vertex="1">
          <mxGeometry x="1155" y="620" width="120" height="60" as="geometry" />
        </mxCell>
        <mxCell id="VTIJ_GDe0LgsKLtdGAgx-29" style="edgeStyle=orthogonalEdgeStyle;rounded=0;orthogonalLoop=1;jettySize=auto;html=1;exitX=0.5;exitY=1;exitDx=0;exitDy=0;entryX=0.5;entryY=0;entryDx=0;entryDy=0;" parent="1" source="VTIJ_GDe0LgsKLtdGAgx-6" target="VTIJ_GDe0LgsKLtdGAgx-26" edge="1">
          <mxGeometry relative="1" as="geometry" />
        </mxCell>
        <mxCell id="VTIJ_GDe0LgsKLtdGAgx-6" value="UPRAVLJANJE TIKETIMA" style="rounded=1;whiteSpace=wrap;html=1;" parent="1" vertex="1">
          <mxGeometry x="465" y="620" width="120" height="60" as="geometry" />
        </mxCell>
        <mxCell id="VTIJ_GDe0LgsKLtdGAgx-16" style="edgeStyle=orthogonalEdgeStyle;rounded=0;orthogonalLoop=1;jettySize=auto;html=1;exitX=0.5;exitY=1;exitDx=0;exitDy=0;" parent="1" source="VTIJ_GDe0LgsKLtdGAgx-7" edge="1">
          <mxGeometry relative="1" as="geometry">
            <mxPoint x="870" y="750" as="targetPoint" />
          </mxGeometry>
        </mxCell>
        <mxCell id="VTIJ_GDe0LgsKLtdGAgx-7" value="UPRAVLJANJE ARTIKLIMA" style="rounded=1;whiteSpace=wrap;html=1;" parent="1" vertex="1">
          <mxGeometry x="810" y="620" width="120" height="60" as="geometry" />
        </mxCell>
        <mxCell id="VTIJ_GDe0LgsKLtdGAgx-11" style="edgeStyle=orthogonalEdgeStyle;rounded=0;orthogonalLoop=1;jettySize=auto;html=1;exitX=0.5;exitY=1;exitDx=0;exitDy=0;entryX=0.5;entryY=0;entryDx=0;entryDy=0;" parent="1" source="VTIJ_GDe0LgsKLtdGAgx-8" target="VTIJ_GDe0LgsKLtdGAgx-10" edge="1">
          <mxGeometry relative="1" as="geometry" />
        </mxCell>
        <mxCell id="VTIJ_GDe0LgsKLtdGAgx-8" value="ODREDI KORISNIKA" style="rounded=1;whiteSpace=wrap;html=1;" parent="1" vertex="1">
          <mxGeometry x="340" y="280" width="120" height="60" as="geometry" />
        </mxCell>
        <mxCell id="VTIJ_GDe0LgsKLtdGAgx-13" style="edgeStyle=orthogonalEdgeStyle;rounded=0;orthogonalLoop=1;jettySize=auto;html=1;exitX=0;exitY=0.5;exitDx=0;exitDy=0;" parent="1" source="VTIJ_GDe0LgsKLtdGAgx-10" edge="1">
          <mxGeometry relative="1" as="geometry">
            <mxPoint x="170" y="490" as="targetPoint" />
          </mxGeometry>
        </mxCell>
        <mxCell id="VTIJ_GDe0LgsKLtdGAgx-30" style="edgeStyle=orthogonalEdgeStyle;rounded=0;orthogonalLoop=1;jettySize=auto;html=1;exitX=1;exitY=0.5;exitDx=0;exitDy=0;entryX=0.5;entryY=0;entryDx=0;entryDy=0;" parent="1" source="VTIJ_GDe0LgsKLtdGAgx-10" target="VTIJ_GDe0LgsKLtdGAgx-21" edge="1">
          <mxGeometry relative="1" as="geometry" />
        </mxCell>
        <mxCell id="VTIJ_GDe0LgsKLtdGAgx-10" value="" style="rhombus;whiteSpace=wrap;html=1;" parent="1" vertex="1">
          <mxGeometry x="370" y="400" width="60" height="60" as="geometry" />
        </mxCell>
        <mxCell id="VTIJ_GDe0LgsKLtdGAgx-14" value="Korisnik/Kupac" style="text;html=1;align=center;verticalAlign=middle;resizable=0;points=[];autosize=1;strokeColor=none;fillColor=none;" parent="1" vertex="1">
          <mxGeometry x="220" y="398" width="100" height="30" as="geometry" />
        </mxCell>
        <mxCell id="VTIJ_GDe0LgsKLtdGAgx-15" value="Zaposlenik/Admin" style="text;html=1;align=center;verticalAlign=middle;resizable=0;points=[];autosize=1;strokeColor=none;fillColor=none;" parent="1" vertex="1">
          <mxGeometry x="470" y="398" width="120" height="30" as="geometry" />
        </mxCell>
        <mxCell id="VTIJ_GDe0LgsKLtdGAgx-22" style="edgeStyle=orthogonalEdgeStyle;rounded=0;orthogonalLoop=1;jettySize=auto;html=1;exitX=0;exitY=0.5;exitDx=0;exitDy=0;entryX=0.5;entryY=0;entryDx=0;entryDy=0;" parent="1" source="VTIJ_GDe0LgsKLtdGAgx-17" target="VTIJ_GDe0LgsKLtdGAgx-18" edge="1">
          <mxGeometry relative="1" as="geometry" />
        </mxCell>
        <mxCell id="VTIJ_GDe0LgsKLtdGAgx-23" style="edgeStyle=orthogonalEdgeStyle;rounded=0;orthogonalLoop=1;jettySize=auto;html=1;exitX=1;exitY=0.5;exitDx=0;exitDy=0;entryX=0.5;entryY=0;entryDx=0;entryDy=0;" parent="1" source="VTIJ_GDe0LgsKLtdGAgx-17" target="VTIJ_GDe0LgsKLtdGAgx-20" edge="1">
          <mxGeometry relative="1" as="geometry" />
        </mxCell>
        <mxCell id="VTIJ_GDe0LgsKLtdGAgx-17" value="" style="rhombus;whiteSpace=wrap;html=1;" parent="1" vertex="1">
          <mxGeometry x="840" y="750" width="60" height="60" as="geometry" />
        </mxCell>
        <mxCell id="VTIJ_GDe0LgsKLtdGAgx-56" style="edgeStyle=orthogonalEdgeStyle;rounded=0;orthogonalLoop=1;jettySize=auto;html=1;exitX=0.5;exitY=1;exitDx=0;exitDy=0;" parent="1" source="VTIJ_GDe0LgsKLtdGAgx-18" target="VTIJ_GDe0LgsKLtdGAgx-55" edge="1">
          <mxGeometry relative="1" as="geometry" />
        </mxCell>
        <mxCell id="VTIJ_GDe0LgsKLtdGAgx-18" value="PREGLED ARTIKALA" style="rounded=1;whiteSpace=wrap;html=1;" parent="1" vertex="1">
          <mxGeometry x="700" y="830" width="120" height="60" as="geometry" />
        </mxCell>
        <mxCell id="VTIJ_GDe0LgsKLtdGAgx-44" style="edgeStyle=orthogonalEdgeStyle;rounded=0;orthogonalLoop=1;jettySize=auto;html=1;exitX=0;exitY=0.5;exitDx=0;exitDy=0;" parent="1" source="VTIJ_GDe0LgsKLtdGAgx-19" target="VTIJ_GDe0LgsKLtdGAgx-37" edge="1">
          <mxGeometry relative="1" as="geometry" />
        </mxCell>
        <mxCell id="VTIJ_GDe0LgsKLtdGAgx-45" style="edgeStyle=orthogonalEdgeStyle;rounded=0;orthogonalLoop=1;jettySize=auto;html=1;exitX=1;exitY=0.5;exitDx=0;exitDy=0;entryX=0.5;entryY=0;entryDx=0;entryDy=0;" parent="1" source="VTIJ_GDe0LgsKLtdGAgx-19" target="VTIJ_GDe0LgsKLtdGAgx-34" edge="1">
          <mxGeometry relative="1" as="geometry" />
        </mxCell>
        <mxCell id="VTIJ_GDe0LgsKLtdGAgx-19" value="INTERAKCIJA S ARTKLOM" style="rounded=1;whiteSpace=wrap;html=1;" parent="1" vertex="1">
          <mxGeometry x="-90" y="620" width="120" height="60" as="geometry" />
        </mxCell>
        <mxCell id="VTIJ_GDe0LgsKLtdGAgx-57" style="edgeStyle=orthogonalEdgeStyle;rounded=0;orthogonalLoop=1;jettySize=auto;html=1;exitX=0.5;exitY=1;exitDx=0;exitDy=0;" parent="1" source="VTIJ_GDe0LgsKLtdGAgx-20" target="VTIJ_GDe0LgsKLtdGAgx-55" edge="1">
          <mxGeometry relative="1" as="geometry" />
        </mxCell>
        <mxCell id="VTIJ_GDe0LgsKLtdGAgx-20" value="UNOS/AŽURIRANJE ARTIKALA" style="rounded=1;whiteSpace=wrap;html=1;" parent="1" vertex="1">
          <mxGeometry x="910" y="830" width="120" height="60" as="geometry" />
        </mxCell>
        <mxCell id="VTIJ_GDe0LgsKLtdGAgx-21" value="" style="rhombus;whiteSpace=wrap;html=1;" parent="1" vertex="1">
          <mxGeometry x="740" y="490" width="60" height="60" as="geometry" />
        </mxCell>
        <mxCell id="VTIJ_GDe0LgsKLtdGAgx-24" style="edgeStyle=orthogonalEdgeStyle;rounded=0;orthogonalLoop=1;jettySize=auto;html=1;exitX=0;exitY=0.5;exitDx=0;exitDy=0;entryX=0.5;entryY=0;entryDx=0;entryDy=0;" parent="1" source="VTIJ_GDe0LgsKLtdGAgx-26" target="VTIJ_GDe0LgsKLtdGAgx-27" edge="1">
          <mxGeometry relative="1" as="geometry" />
        </mxCell>
        <mxCell id="VTIJ_GDe0LgsKLtdGAgx-25" style="edgeStyle=orthogonalEdgeStyle;rounded=0;orthogonalLoop=1;jettySize=auto;html=1;exitX=1;exitY=0.5;exitDx=0;exitDy=0;entryX=0.5;entryY=0;entryDx=0;entryDy=0;" parent="1" source="VTIJ_GDe0LgsKLtdGAgx-26" target="VTIJ_GDe0LgsKLtdGAgx-28" edge="1">
          <mxGeometry relative="1" as="geometry" />
        </mxCell>
        <mxCell id="VTIJ_GDe0LgsKLtdGAgx-26" value="" style="rhombus;whiteSpace=wrap;html=1;" parent="1" vertex="1">
          <mxGeometry x="495" y="750" width="60" height="60" as="geometry" />
        </mxCell>
        <mxCell id="VTIJ_GDe0LgsKLtdGAgx-53" style="edgeStyle=orthogonalEdgeStyle;rounded=0;orthogonalLoop=1;jettySize=auto;html=1;exitX=0.5;exitY=1;exitDx=0;exitDy=0;" parent="1" source="VTIJ_GDe0LgsKLtdGAgx-27" target="VTIJ_GDe0LgsKLtdGAgx-52" edge="1">
          <mxGeometry relative="1" as="geometry" />
        </mxCell>
        <mxCell id="VTIJ_GDe0LgsKLtdGAgx-27" value="BRISANJE TIKETA" style="rounded=1;whiteSpace=wrap;html=1;" parent="1" vertex="1">
          <mxGeometry x="355" y="830" width="120" height="60" as="geometry" />
        </mxCell>
        <mxCell id="VTIJ_GDe0LgsKLtdGAgx-54" style="edgeStyle=orthogonalEdgeStyle;rounded=0;orthogonalLoop=1;jettySize=auto;html=1;exitX=0.5;exitY=1;exitDx=0;exitDy=0;" parent="1" source="VTIJ_GDe0LgsKLtdGAgx-28" target="VTIJ_GDe0LgsKLtdGAgx-52" edge="1">
          <mxGeometry relative="1" as="geometry" />
        </mxCell>
        <mxCell id="VTIJ_GDe0LgsKLtdGAgx-28" value="ODGOVARANJE NA TIKETE" style="rounded=1;whiteSpace=wrap;html=1;" parent="1" vertex="1">
          <mxGeometry x="565" y="830" width="120" height="60" as="geometry" />
        </mxCell>
        <mxCell id="VTIJ_GDe0LgsKLtdGAgx-80" style="edgeStyle=orthogonalEdgeStyle;rounded=0;orthogonalLoop=1;jettySize=auto;html=1;exitX=0.5;exitY=1;exitDx=0;exitDy=0;entryX=0.5;entryY=0;entryDx=0;entryDy=0;" parent="1" source="VTIJ_GDe0LgsKLtdGAgx-31" target="VTIJ_GDe0LgsKLtdGAgx-79" edge="1">
          <mxGeometry relative="1" as="geometry" />
        </mxCell>
        <mxCell id="VTIJ_GDe0LgsKLtdGAgx-31" value="PREGLED" style="rounded=1;whiteSpace=wrap;html=1;" parent="1" vertex="1">
          <mxGeometry x="1060" y="830" width="120" height="60" as="geometry" />
        </mxCell>
        <mxCell id="VTIJ_GDe0LgsKLtdGAgx-46" style="edgeStyle=orthogonalEdgeStyle;rounded=0;orthogonalLoop=1;jettySize=auto;html=1;exitX=0.5;exitY=1;exitDx=0;exitDy=0;entryX=0.5;entryY=0;entryDx=0;entryDy=0;" parent="1" source="VTIJ_GDe0LgsKLtdGAgx-34" target="VTIJ_GDe0LgsKLtdGAgx-38" edge="1">
          <mxGeometry relative="1" as="geometry" />
        </mxCell>
        <mxCell id="VTIJ_GDe0LgsKLtdGAgx-34" value="PRETRAZIVANJE" style="rounded=1;whiteSpace=wrap;html=1;" parent="1" vertex="1">
          <mxGeometry x="30" y="730" width="120" height="60" as="geometry" />
        </mxCell>
        <mxCell id="VTIJ_GDe0LgsKLtdGAgx-47" style="edgeStyle=orthogonalEdgeStyle;rounded=0;orthogonalLoop=1;jettySize=auto;html=1;exitX=0.5;exitY=1;exitDx=0;exitDy=0;entryX=0.5;entryY=0;entryDx=0;entryDy=0;" parent="1" source="VTIJ_GDe0LgsKLtdGAgx-35" target="VTIJ_GDe0LgsKLtdGAgx-39" edge="1">
          <mxGeometry relative="1" as="geometry" />
        </mxCell>
        <mxCell id="VTIJ_GDe0LgsKLtdGAgx-35" value="KONTANKTIRANJE" style="rounded=1;whiteSpace=wrap;html=1;" parent="1" vertex="1">
          <mxGeometry x="210" y="620" width="120" height="60" as="geometry" />
        </mxCell>
        <mxCell id="VTIJ_GDe0LgsKLtdGAgx-94" style="edgeStyle=orthogonalEdgeStyle;rounded=0;orthogonalLoop=1;jettySize=auto;html=1;exitX=0.5;exitY=1;exitDx=0;exitDy=0;entryX=0.5;entryY=0;entryDx=0;entryDy=0;" parent="1" source="VTIJ_GDe0LgsKLtdGAgx-37" target="VTIJ_GDe0LgsKLtdGAgx-60" edge="1">
          <mxGeometry relative="1" as="geometry">
            <Array as="points">
              <mxPoint x="-150" y="940" />
              <mxPoint x="-40" y="940" />
            </Array>
          </mxGeometry>
        </mxCell>
        <mxCell id="VTIJ_GDe0LgsKLtdGAgx-37" value="NARUČIVANJE" style="rounded=1;whiteSpace=wrap;html=1;" parent="1" vertex="1">
          <mxGeometry x="-210" y="730" width="120" height="60" as="geometry" />
        </mxCell>
        <mxCell id="VTIJ_GDe0LgsKLtdGAgx-93" style="edgeStyle=orthogonalEdgeStyle;rounded=0;orthogonalLoop=1;jettySize=auto;html=1;exitX=0.5;exitY=1;exitDx=0;exitDy=0;entryX=0.5;entryY=0;entryDx=0;entryDy=0;" parent="1" source="VTIJ_GDe0LgsKLtdGAgx-38" target="VTIJ_GDe0LgsKLtdGAgx-60" edge="1">
          <mxGeometry relative="1" as="geometry" />
        </mxCell>
        <mxCell id="VTIJ_GDe0LgsKLtdGAgx-38" value="SORTIRANJE" style="rounded=1;whiteSpace=wrap;html=1;" parent="1" vertex="1">
          <mxGeometry x="30" y="840" width="120" height="60" as="geometry" />
        </mxCell>
        <mxCell id="VTIJ_GDe0LgsKLtdGAgx-59" style="edgeStyle=orthogonalEdgeStyle;rounded=0;orthogonalLoop=1;jettySize=auto;html=1;exitX=0.5;exitY=1;exitDx=0;exitDy=0;entryX=0.5;entryY=0;entryDx=0;entryDy=0;" parent="1" source="VTIJ_GDe0LgsKLtdGAgx-39" target="VTIJ_GDe0LgsKLtdGAgx-58" edge="1">
          <mxGeometry relative="1" as="geometry" />
        </mxCell>
        <mxCell id="VTIJ_GDe0LgsKLtdGAgx-39" value="SLANJE TIKETA" style="rounded=1;whiteSpace=wrap;html=1;" parent="1" vertex="1">
          <mxGeometry x="210" y="740" width="120" height="60" as="geometry" />
        </mxCell>
        <mxCell id="VTIJ_GDe0LgsKLtdGAgx-49" style="edgeStyle=orthogonalEdgeStyle;rounded=0;orthogonalLoop=1;jettySize=auto;html=1;exitX=0.5;exitY=1;exitDx=0;exitDy=0;entryX=0.5;entryY=0;entryDx=0;entryDy=0;" parent="1" source="VTIJ_GDe0LgsKLtdGAgx-40" target="VTIJ_GDe0LgsKLtdGAgx-6" edge="1">
          <mxGeometry relative="1" as="geometry" />
        </mxCell>
        <mxCell id="VTIJ_GDe0LgsKLtdGAgx-50" style="edgeStyle=orthogonalEdgeStyle;rounded=0;orthogonalLoop=1;jettySize=auto;html=1;exitX=0.5;exitY=1;exitDx=0;exitDy=0;entryX=0.5;entryY=0;entryDx=0;entryDy=0;" parent="1" source="VTIJ_GDe0LgsKLtdGAgx-40" target="VTIJ_GDe0LgsKLtdGAgx-7" edge="1">
          <mxGeometry relative="1" as="geometry" />
        </mxCell>
        <mxCell id="VTIJ_GDe0LgsKLtdGAgx-51" style="edgeStyle=orthogonalEdgeStyle;rounded=0;orthogonalLoop=1;jettySize=auto;html=1;exitX=0.5;exitY=1;exitDx=0;exitDy=0;" parent="1" source="VTIJ_GDe0LgsKLtdGAgx-40" target="VTIJ_GDe0LgsKLtdGAgx-4" edge="1">
          <mxGeometry relative="1" as="geometry" />
        </mxCell>
        <mxCell id="VTIJ_GDe0LgsKLtdGAgx-70" style="edgeStyle=orthogonalEdgeStyle;rounded=0;orthogonalLoop=1;jettySize=auto;html=1;exitX=1;exitY=0.5;exitDx=0;exitDy=0;entryX=0;entryY=0.5;entryDx=0;entryDy=0;" parent="1" source="VTIJ_GDe0LgsKLtdGAgx-40" target="VTIJ_GDe0LgsKLtdGAgx-72" edge="1">
          <mxGeometry relative="1" as="geometry">
            <mxPoint x="1430" y="520" as="targetPoint" />
          </mxGeometry>
        </mxCell>
        <mxCell id="VTIJ_GDe0LgsKLtdGAgx-40" value="" style="rhombus;whiteSpace=wrap;html=1;" parent="1" vertex="1">
          <mxGeometry x="740" y="490" width="60" height="60" as="geometry" />
        </mxCell>
        <mxCell id="VTIJ_GDe0LgsKLtdGAgx-42" style="edgeStyle=orthogonalEdgeStyle;rounded=0;orthogonalLoop=1;jettySize=auto;html=1;exitX=0.5;exitY=1;exitDx=0;exitDy=0;" parent="1" source="VTIJ_GDe0LgsKLtdGAgx-41" target="VTIJ_GDe0LgsKLtdGAgx-35" edge="1">
          <mxGeometry relative="1" as="geometry" />
        </mxCell>
        <mxCell id="VTIJ_GDe0LgsKLtdGAgx-43" style="edgeStyle=orthogonalEdgeStyle;rounded=0;orthogonalLoop=1;jettySize=auto;html=1;exitX=0.5;exitY=1;exitDx=0;exitDy=0;entryX=0.5;entryY=0;entryDx=0;entryDy=0;" parent="1" source="VTIJ_GDe0LgsKLtdGAgx-41" target="VTIJ_GDe0LgsKLtdGAgx-19" edge="1">
          <mxGeometry relative="1" as="geometry" />
        </mxCell>
        <mxCell id="VTIJ_GDe0LgsKLtdGAgx-41" value="" style="rhombus;whiteSpace=wrap;html=1;" parent="1" vertex="1">
          <mxGeometry x="140" y="490" width="60" height="60" as="geometry" />
        </mxCell>
        <mxCell id="VTIJ_GDe0LgsKLtdGAgx-104" style="edgeStyle=orthogonalEdgeStyle;rounded=0;orthogonalLoop=1;jettySize=auto;html=1;exitX=0.5;exitY=1;exitDx=0;exitDy=0;endArrow=none;endFill=0;" parent="1" source="VTIJ_GDe0LgsKLtdGAgx-52" edge="1">
          <mxGeometry relative="1" as="geometry">
            <mxPoint x="700" y="1139.9999999999998" as="targetPoint" />
          </mxGeometry>
        </mxCell>
        <mxCell id="VTIJ_GDe0LgsKLtdGAgx-52" value="" style="rhombus;whiteSpace=wrap;html=1;" parent="1" vertex="1">
          <mxGeometry x="495" y="980" width="60" height="60" as="geometry" />
        </mxCell>
        <mxCell id="VTIJ_GDe0LgsKLtdGAgx-55" value="" style="rhombus;whiteSpace=wrap;html=1;" parent="1" vertex="1">
          <mxGeometry x="840" y="980" width="60" height="60" as="geometry" />
        </mxCell>
        <mxCell id="VTIJ_GDe0LgsKLtdGAgx-103" style="edgeStyle=orthogonalEdgeStyle;rounded=0;orthogonalLoop=1;jettySize=auto;html=1;exitX=0.5;exitY=1;exitDx=0;exitDy=0;endArrow=none;endFill=0;" parent="1" source="VTIJ_GDe0LgsKLtdGAgx-58" edge="1">
          <mxGeometry relative="1" as="geometry">
            <mxPoint x="700" y="1139.9999999999998" as="targetPoint" />
          </mxGeometry>
        </mxCell>
        <mxCell id="VTIJ_GDe0LgsKLtdGAgx-58" value="" style="rhombus;whiteSpace=wrap;html=1;" parent="1" vertex="1">
          <mxGeometry x="240" y="980" width="60" height="60" as="geometry" />
        </mxCell>
        <mxCell id="VTIJ_GDe0LgsKLtdGAgx-102" style="edgeStyle=orthogonalEdgeStyle;rounded=0;orthogonalLoop=1;jettySize=auto;html=1;exitX=0.5;exitY=1;exitDx=0;exitDy=0;endArrow=none;endFill=0;" parent="1" source="VTIJ_GDe0LgsKLtdGAgx-60" edge="1">
          <mxGeometry relative="1" as="geometry">
            <mxPoint x="700" y="1140" as="targetPoint" />
          </mxGeometry>
        </mxCell>
        <mxCell id="VTIJ_GDe0LgsKLtdGAgx-60" value="" style="rhombus;whiteSpace=wrap;html=1;" parent="1" vertex="1">
          <mxGeometry x="-70" y="980" width="60" height="60" as="geometry" />
        </mxCell>
        <mxCell id="VTIJ_GDe0LgsKLtdGAgx-71" value="Superadmin/Vlasnik" style="text;html=1;align=center;verticalAlign=middle;resizable=0;points=[];autosize=1;strokeColor=none;fillColor=none;" parent="1" vertex="1">
          <mxGeometry x="1055" y="478" width="130" height="30" as="geometry" />
        </mxCell>
        <mxCell id="VTIJ_GDe0LgsKLtdGAgx-108" style="edgeStyle=orthogonalEdgeStyle;rounded=0;orthogonalLoop=1;jettySize=auto;html=1;exitX=0.5;exitY=1;exitDx=0;exitDy=0;entryX=0.5;entryY=0;entryDx=0;entryDy=0;" parent="1" source="VTIJ_GDe0LgsKLtdGAgx-72" target="VTIJ_GDe0LgsKLtdGAgx-82" edge="1">
          <mxGeometry relative="1" as="geometry" />
        </mxCell>
        <mxCell id="VTIJ_GDe0LgsKLtdGAgx-72" value="" style="rhombus;whiteSpace=wrap;html=1;" parent="1" vertex="1">
          <mxGeometry x="1545" y="490" width="60" height="60" as="geometry" />
        </mxCell>
        <mxCell id="VTIJ_GDe0LgsKLtdGAgx-81" style="edgeStyle=orthogonalEdgeStyle;rounded=0;orthogonalLoop=1;jettySize=auto;html=1;exitX=0.5;exitY=1;exitDx=0;exitDy=0;entryX=0.5;entryY=0;entryDx=0;entryDy=0;" parent="1" source="VTIJ_GDe0LgsKLtdGAgx-73" target="VTIJ_GDe0LgsKLtdGAgx-79" edge="1">
          <mxGeometry relative="1" as="geometry" />
        </mxCell>
        <mxCell id="VTIJ_GDe0LgsKLtdGAgx-73" value="BAN/UNBAN" style="rounded=1;whiteSpace=wrap;html=1;" parent="1" vertex="1">
          <mxGeometry x="1270" y="830" width="120" height="60" as="geometry" />
        </mxCell>
        <mxCell id="VTIJ_GDe0LgsKLtdGAgx-77" style="edgeStyle=orthogonalEdgeStyle;rounded=0;orthogonalLoop=1;jettySize=auto;html=1;exitX=1;exitY=0.5;exitDx=0;exitDy=0;" parent="1" source="VTIJ_GDe0LgsKLtdGAgx-75" target="VTIJ_GDe0LgsKLtdGAgx-73" edge="1">
          <mxGeometry relative="1" as="geometry" />
        </mxCell>
        <mxCell id="VTIJ_GDe0LgsKLtdGAgx-78" style="edgeStyle=orthogonalEdgeStyle;rounded=0;orthogonalLoop=1;jettySize=auto;html=1;exitX=0;exitY=0.5;exitDx=0;exitDy=0;entryX=0.5;entryY=0;entryDx=0;entryDy=0;" parent="1" source="VTIJ_GDe0LgsKLtdGAgx-75" target="VTIJ_GDe0LgsKLtdGAgx-31" edge="1">
          <mxGeometry relative="1" as="geometry" />
        </mxCell>
        <mxCell id="VTIJ_GDe0LgsKLtdGAgx-75" value="" style="rhombus;whiteSpace=wrap;html=1;" parent="1" vertex="1">
          <mxGeometry x="1185" y="750" width="60" height="60" as="geometry" />
        </mxCell>
        <mxCell id="VTIJ_GDe0LgsKLtdGAgx-79" value="" style="rhombus;whiteSpace=wrap;html=1;" parent="1" vertex="1">
          <mxGeometry x="1190" y="970" width="60" height="60" as="geometry" />
        </mxCell>
        <mxCell id="VTIJ_GDe0LgsKLtdGAgx-91" style="edgeStyle=orthogonalEdgeStyle;rounded=0;orthogonalLoop=1;jettySize=auto;html=1;exitX=0.5;exitY=1;exitDx=0;exitDy=0;entryX=0.5;entryY=0;entryDx=0;entryDy=0;" parent="1" source="VTIJ_GDe0LgsKLtdGAgx-82" target="VTIJ_GDe0LgsKLtdGAgx-89" edge="1">
          <mxGeometry relative="1" as="geometry" />
        </mxCell>
        <mxCell id="VTIJ_GDe0LgsKLtdGAgx-82" value="UPRAVLJANJE RAČUNIMA ZAPOSLENIKA" style="rounded=1;whiteSpace=wrap;html=1;" parent="1" vertex="1">
          <mxGeometry x="1515" y="620" width="120" height="60" as="geometry" />
        </mxCell>
        <mxCell id="VTIJ_GDe0LgsKLtdGAgx-83" style="edgeStyle=orthogonalEdgeStyle;rounded=0;orthogonalLoop=1;jettySize=auto;html=1;exitX=0.5;exitY=1;exitDx=0;exitDy=0;entryX=0.5;entryY=0;entryDx=0;entryDy=0;" parent="1" source="VTIJ_GDe0LgsKLtdGAgx-87" target="VTIJ_GDe0LgsKLtdGAgx-90" edge="1">
          <mxGeometry relative="1" as="geometry" />
        </mxCell>
        <mxCell id="VTIJ_GDe0LgsKLtdGAgx-84" style="edgeStyle=orthogonalEdgeStyle;rounded=0;orthogonalLoop=1;jettySize=auto;html=1;exitX=0.5;exitY=1;exitDx=0;exitDy=0;entryX=0.5;entryY=0;entryDx=0;entryDy=0;" parent="1" source="VTIJ_GDe0LgsKLtdGAgx-88" target="VTIJ_GDe0LgsKLtdGAgx-90" edge="1">
          <mxGeometry relative="1" as="geometry" />
        </mxCell>
        <mxCell id="VTIJ_GDe0LgsKLtdGAgx-85" style="edgeStyle=orthogonalEdgeStyle;rounded=0;orthogonalLoop=1;jettySize=auto;html=1;exitX=1;exitY=0.5;exitDx=0;exitDy=0;" parent="1" source="VTIJ_GDe0LgsKLtdGAgx-89" target="VTIJ_GDe0LgsKLtdGAgx-88" edge="1">
          <mxGeometry relative="1" as="geometry" />
        </mxCell>
        <mxCell id="VTIJ_GDe0LgsKLtdGAgx-86" style="edgeStyle=orthogonalEdgeStyle;rounded=0;orthogonalLoop=1;jettySize=auto;html=1;exitX=0;exitY=0.5;exitDx=0;exitDy=0;entryX=0.5;entryY=0;entryDx=0;entryDy=0;" parent="1" source="VTIJ_GDe0LgsKLtdGAgx-89" target="VTIJ_GDe0LgsKLtdGAgx-87" edge="1">
          <mxGeometry relative="1" as="geometry" />
        </mxCell>
        <mxCell id="VTIJ_GDe0LgsKLtdGAgx-87" value="PREGLED" style="rounded=1;whiteSpace=wrap;html=1;" parent="1" vertex="1">
          <mxGeometry x="1420" y="830" width="120" height="60" as="geometry" />
        </mxCell>
        <mxCell id="VTIJ_GDe0LgsKLtdGAgx-88" value="BAN/UNBAN" style="rounded=1;whiteSpace=wrap;html=1;" parent="1" vertex="1">
          <mxGeometry x="1630" y="830" width="120" height="60" as="geometry" />
        </mxCell>
        <mxCell id="VTIJ_GDe0LgsKLtdGAgx-89" value="" style="rhombus;whiteSpace=wrap;html=1;" parent="1" vertex="1">
          <mxGeometry x="1545" y="750" width="60" height="60" as="geometry" />
        </mxCell>
        <mxCell id="VTIJ_GDe0LgsKLtdGAgx-96" style="edgeStyle=orthogonalEdgeStyle;rounded=0;orthogonalLoop=1;jettySize=auto;html=1;exitX=0.5;exitY=1;exitDx=0;exitDy=0;" parent="1" source="VTIJ_GDe0LgsKLtdGAgx-90" edge="1">
          <mxGeometry relative="1" as="geometry">
            <mxPoint x="700" y="1150" as="targetPoint" />
          </mxGeometry>
        </mxCell>
        <mxCell id="VTIJ_GDe0LgsKLtdGAgx-90" value="" style="rhombus;whiteSpace=wrap;html=1;" parent="1" vertex="1">
          <mxGeometry x="1550" y="970" width="60" height="60" as="geometry" />
        </mxCell>
        <mxCell id="VTIJ_GDe0LgsKLtdGAgx-95" value="" style="endArrow=none;html=1;rounded=0;strokeWidth=14;" parent="1" edge="1">
          <mxGeometry width="50" height="50" relative="1" as="geometry">
            <mxPoint x="340" y="1160" as="sourcePoint" />
            <mxPoint x="1110" y="1160" as="targetPoint" />
          </mxGeometry>
        </mxCell>
        <mxCell id="VTIJ_GDe0LgsKLtdGAgx-98" value="" style="endArrow=none;html=1;rounded=0;exitX=0.5;exitY=1;exitDx=0;exitDy=0;" parent="1" source="VTIJ_GDe0LgsKLtdGAgx-55" edge="1">
          <mxGeometry width="50" height="50" relative="1" as="geometry">
            <mxPoint x="730" y="1190" as="sourcePoint" />
            <mxPoint x="870" y="1090" as="targetPoint" />
          </mxGeometry>
        </mxCell>
        <mxCell id="VTIJ_GDe0LgsKLtdGAgx-101" value="" style="endArrow=none;html=1;rounded=0;exitX=0.5;exitY=1;exitDx=0;exitDy=0;" parent="1" source="VTIJ_GDe0LgsKLtdGAgx-79" edge="1">
          <mxGeometry width="50" height="50" relative="1" as="geometry">
            <mxPoint x="880" y="1050" as="sourcePoint" />
            <mxPoint x="1220" y="1090" as="targetPoint" />
          </mxGeometry>
        </mxCell>
        <mxCell id="VTIJ_GDe0LgsKLtdGAgx-105" value="" style="ellipse;whiteSpace=wrap;html=1;aspect=fixed;" parent="1" vertex="1">
          <mxGeometry x="660" y="1210" width="80" height="80" as="geometry" />
        </mxCell>
        <mxCell id="VTIJ_GDe0LgsKLtdGAgx-106" value="" style="ellipse;whiteSpace=wrap;html=1;aspect=fixed;fillColor=#000000;" parent="1" vertex="1">
          <mxGeometry x="670" y="1220" width="60" height="60" as="geometry" />
        </mxCell>
        <mxCell id="VTIJ_GDe0LgsKLtdGAgx-107" value="" style="endArrow=classic;html=1;rounded=0;entryX=0.5;entryY=0;entryDx=0;entryDy=0;" parent="1" target="VTIJ_GDe0LgsKLtdGAgx-105" edge="1">
          <mxGeometry width="50" height="50" relative="1" as="geometry">
            <mxPoint x="700" y="1160" as="sourcePoint" />
            <mxPoint x="610" y="1390" as="targetPoint" />
          </mxGeometry>
        </mxCell>
      </root>
    </mxGraphModel>
  </diagram>
</mxfile>
